<svg version="1" xmlns="http://www.w3.org/2000/svg" width="1322.667" height="1322.667" viewBox="0 0 992.000000 992.000000"><path d="M714 133.8c-1.4 1.5-6.2 9-7.7 12.2-.4.8-1.1 1.9-1.5 2.5-.5.5-3.9 6.3-7.7 12.7-3.7 6.4-7.2 12.3-7.8 13-.6.7-1.3 1.9-1.5 2.7-.2.8-1.1 2.3-2 3.3-1 1-1.8 2.5-1.8 3.3 0 .8-.4 1.5-.9 1.5s-1.5 1.6-2.2 3.5c-.7 1.9-1.7 3.5-2.1 3.5-.4 0-.8.4-.8.9 0 1.2-8.2 14.5-9.2 14.9-.5.2-.6.7-.3 1.2s0 1.5-.7 2.2c-1.6 1.7-3.6 4.7-4.5 6.8-.3.8-2.1 3.9-4 6.8-1.8 2.9-3.3 5.7-3.3 6.2 0 .6-.5 1-1.2 1-.6 0-.9.3-.5.6.3.3-.2 1.4-1.1 2.5-.9 1.1-1.7 2.3-1.7 2.7-.1.4-1.2 2.5-2.6 4.7-1.4 2.2-4.7 7.6-7.3 12-2.6 4.4-5.1 8.7-5.6 9.5-6.1 10-9 15.2-9 16 0 .6-.4 1-.8 1-.5 0-1.7 1.8-2.7 4-1 2.2-2.2 4-2.7 4-.4 0-.8.6-.8 1.3 0 .7-1.6 3.6-3.5 6.6-1.9 2.9-3.5 5.7-3.5 6.1 0 .5-.6 1.5-1.2 2.2-1.8 1.9-4.8 6.9-5.5 9-.3 1-.9 1.8-1.4 1.8-.5 0-.9.5-.9 1 0 .6-1.5 3.5-3.4 6.4-1.8 2.9-3.7 6.2-4 7.4-.4 1.2-1.1 2.2-1.5 2.2-.4 0-1.8 2.2-3.2 5-1.3 2.7-2.7 5-3.1 5-.5 0-.8.4-.8.9s-1.8 3.9-4 7.5-4 7-4 7.6c0 .5-.4 1-1 1-.5 0-1 .4-1 .8 0 .5-4.9 9-10.9 19S556.5 398 556.8 398c.4 0-.1.5-1 1.1-1 .5-1.8 1.5-1.8 2 0 .6-3.4 6.6-7.5 13.4-4.1 6.8-7.5 12.9-7.5 13.5 0 .5-.4 1-.8 1s-1.8 1.9-3 4.2c-2.2 4.4-2.7 5.1-7.4 12.5-1.4 2.2-2.9 5.1-3.3 6.2-.3 1.2-1.1 2.1-1.6 2.1s-.9.5-.9 1.1c0 .6-1.3 3.1-3 5.6-1.6 2.4-3 4.6-3 4.8 0 1-19.3 32.5-19.8 32.5-.4 0-2.7-3.6-5.2-8s-4.8-8-5.1-8c-.3 0-1.1-1.6-1.9-3.5-.8-1.9-1.7-3.5-2.1-3.5-.3 0-1.2-1.4-1.9-3-.7-1.7-1.6-3-2-3-.4 0-1-.8-1.4-1.8-.7-2.1-3.4-6.7-6.4-11-1.3-1.7-2-3.2-1.5-3.2.4 0 .3-.4-.3-.8-.5-.4-4.8-7-9.5-14.7-4.6-7.7-8.7-14.2-9.1-14.3-.5-.2-.8-.8-.8-1.3s-2.7-5.2-6-10.5c-3.3-5.2-6-9.9-6-10.5 0-.5-.4-.9-.8-.9s-1.3-1.2-2-2.8c-.6-1.5-3.2-5.9-5.7-9.7-2.5-3.9-4.8-7.8-5.1-8.8-.4-.9-1-1.7-1.5-1.7s-.9-.4-.9-.9c0-1-8.2-14.7-10-16.9-.6-.6-.8-1.2-.5-1.2.3 0 .1-.6-.5-1.3-1.9-2.1-15-23.8-15-24.8 0-.5-.4-.9-1-.9-.5 0-1-.5-1-1.1 0-.6-1.5-3.4-3.3-6.2-5.2-8-11.7-18.6-11.7-19 0-.2-2-3.5-4.5-7.3-2.5-3.7-4.5-7.4-4.5-8.1 0-.8-.7-1.6-1.5-1.9-.8-.4-1.5-1.1-1.5-1.7 0-.5-2.3-4.5-5-8.8-2.8-4.3-5-8.2-5-8.8 0-.5-.3-1.1-.7-1.3-.5-.2-1.5-1.5-2.3-3-.8-1.5-4.3-7.3-7.8-12.9-3.4-5.6-6.2-10.6-6.2-11.1 0-.4-.4-.8-1-.8-.5 0-1-.4-1-1 0-.9-6.9-12.3-9-14.7-.5-.7-1-1.5-1-1.8 0-.3-2.2-4.2-5-8.6-2.7-4.4-5-8.5-5-9s-.4-.9-.9-.9-1.4-1.5-2.2-3.3c-.7-1.7-1.6-3.4-2-3.7-.4-.3-1.5-1.9-2.5-3.7-1.1-1.8-4.9-8.2-8.6-14.2-3.8-6.1-6.8-11.3-6.8-11.6 0-.3-.5-1.1-1-1.8-1.5-1.8-5-7.3-9.9-15.7-2.5-4.1-4.9-7.8-5.5-8.2-.6-.4-.7-.8-.3-.8.4 0-.4-1.5-1.8-3.4l-2.6-3.4h-72.7c-40 0-73.1.4-73.7.8-.7.6-1 107.2-.9 316.7v315.8h165.9V604.3c0-89.2.3-162.4.6-162.8.4-.3 1.6 1.4 2.8 3.7 1.2 2.4 5.4 9.5 9.4 15.9 7.3 11.7 25.5 41.3 29.2 47.3 10 16.7 14.2 23.3 15.2 24.4.7.7 1.3 2 1.3 2.8 0 .8.4 1.4 1 1.4.5 0 1.2 1.1 1.6 2.5.3 1.4.9 2.5 1.3 2.5.3 0 1.8 2.1 3.1 4.7 1.4 2.6 3 5.3 3.7 6 .6.7 1.5 2.2 1.8 3.3.3 1.1 1.1 2 1.6 2s.9.4.9.9 4.6 8.3 10.2 17.3c5.5 8.9 10.8 17.6 11.6 19.3.9 1.6 2 3.4 2.4 4 2 2.3 27.8 44.7 27.8 45.6 0 .5.3.9.8.9.4 0 1.2.9 1.7 2.1 1.5 3 15.7 26.3 16.5 26.9.3.3 1.4 2.2 2.3 4.3 1 2 2.2 3.7 2.7 3.7.6 0 1 .9 1 1.9 0 1.1.3 2.1.8 2.3.4.1 2.5 3.2 4.6 6.8 7.2 11.9 1.5 10.6 46.4 10.5h39.3l1.9-2.5c1.1-1.4 2-3 2-3.7 0-.6.4-1.3.8-1.5.4-.2 4.3-6.4 8.7-13.8 4.3-7.4 8.2-13.7 8.7-13.8.4-.2.8-1.2.8-2.2 0-1 .4-2 .8-2.2.5-.2 2.3-3 4.2-6.3 1.8-3.3 3.7-6.2 4-6.5.4-.3 1.3-2 2.1-3.7.8-1.8 1.7-3.3 2-3.3.3 0 1.4-1.8 2.4-4s2.1-4 2.5-4c.3 0 1.2-1.6 2-3.5s1.7-3.5 2.2-3.5c.4 0 .8-.4.8-.9s3.2-6.1 7-12.5c3.9-6.3 7-12 7-12.5 0-.6.4-1.1.8-1.1.5 0 1.7-1.8 2.7-4 1-2.2 2.2-4 2.7-4 .4 0 .8-.4.8-.9 0-.7 3.1-6.4 6-11.1 5.8-9.2 20-33.5 20-34.1 0-.5.5-.9 1-.9.6 0 1-.5 1-1 0-.6 1.2-2.9 2.7-5.3 1.5-2.3 3.1-5.1 3.7-6.2 3.6-6.6 22.1-37.1 22.9-37.6.5-.3.8-.9.7-1.3 0-.4 4.9-9 11-19.1 6-10.2 11-18.9 11-19.4s.3-1.1.8-1.3c.4-.2 2.7-3.7 5.1-7.8 4.7-7.9 10.3-17 10.6-17 .2 0 .6 65.2.8 135 .1 43.6.6 67.8 1.2 68.2.7.5.7.8 0 .8-1 0-1 9.9-.1 15.7.2 1.3-.1 2.3-.6 2.3s-.4.8.1 1.9c.6 1 .7 2.1.4 2.5-.4.3-.5 3.2-.4 6.4.2 3.1.4 27.1.6 53.2.2 26.1.3 47.8.4 48.3.1.4 37.1.6 82.3.5l82.2-.3-.3-125.5c-.2-69-.4-184-.6-255.5-.2-71.5-.4-157.5-.5-191.2l-.2-61.1-72.9.1c-40.1.1-73-.1-73.1-.5-.2-.3-1 .1-1.8 1zM62.6 843c-.2.3-.2 10.2-.2 22l.1 21.5h431.8l431.8.1.4-2.1c.3-1.1.4-11 .2-22l-.2-19.9-431.8-.1c-237.6 0-432 .2-432.1.5z"/></svg>